<?xml version="1.0" standalone="no"?>
<!DOCTYPE svg PUBLIC "-//W3C//DTD SVG 20010904//EN"
 "http://www.w3.org/TR/2001/REC-SVG-20010904/DTD/svg10.dtd">
<svg version="1.0" xmlns="http://www.w3.org/2000/svg"
 width="400.000000pt" height="400.000000pt" viewBox="0 0 400.000000 400.000000"
 preserveAspectRatio="xMidYMid meet">
<metadata>
Created by potrace 1.11, written by Peter Selinger 2001-2013
</metadata>
<g transform="translate(0.000000,400.000000) scale(0.100000,-0.100000)"
fill="#000000" stroke="none">
<path d="M1079 3722 c-126 -80 -236 -285 -286 -534 -22 -109 -24 -405 -4 -498
19 -85 63 -191 101 -243 16 -22 30 -44 30 -48 0 -4 -16 -42 -36 -85 l-37 -77
19 -34 c15 -29 16 -38 5 -55 -54 -86 -91 -188 -91 -249 0 -43 25 -65 65 -55
22 6 22 5 17 -88 -8 -162 35 -296 95 -296 15 0 27 -9 35 -24 10 -22 4 -35 -51
-121 -146 -224 -221 -422 -221 -581 0 -56 -2 -63 -27 -79 -136 -86 -119 -192
42 -272 72 -36 225 -85 325 -103 337 -63 667 -86 989 -70 532 27 879 107 1019
234 38 35 42 43 42 86 0 46 -3 51 -57 99 -56 50 -56 51 -54 103 5 130 -52 297
-180 524 l-23 42 24 36 c29 42 40 44 79 15 23 -17 33 -19 49 -10 29 15 63 131
77 256 9 82 13 92 35 98 40 10 80 163 80 307 l0 88 51 38 c173 132 294 435
306 771 7 168 -6 264 -49 375 -122 320 -391 255 -869 -209 l-96 -93 -92 30
c-51 16 -109 30 -129 30 -21 0 -64 5 -97 11 -33 6 -127 12 -209 14 l-150 3
-29 54 c-16 29 -45 81 -63 115 -127 230 -306 445 -416 496 -80 38 -158 37
-219 -1z"/>
</g>
</svg>
